<?xml version="1.0" encoding="utf-8"?>
<!-- Generator: Adobe Illustrator 24.0.1, SVG Export Plug-In . SVG Version: 6.00 Build 0)  -->
<svg version="1.1" xmlns="http://www.w3.org/2000/svg" xmlns:xlink="http://www.w3.org/1999/xlink" x="0px" y="0px"
	 viewBox="0 0 415.15 399.83" style="enable-background:new 0 0 415.15 399.83;" xml:space="preserve">
<style type="text/css">
	.st0{fill:#C6FF00;}
	.st1{opacity:0.7;fill:#FFFFFF;}
	.st2{opacity:0.5;}
	.st3{fill:#FFFFFF;}
	.st4{opacity:0.5;fill:#FFFFFF;}
	.st5{fill:#828282;}
	.st6{opacity:0.3;fill:#FFFFFF;}
	.st7{opacity:0.4;fill:#FFFFFF;}
	.st8{fill:none;stroke:#787878;stroke-linecap:round;stroke-linejoin:round;stroke-miterlimit:10;}
	.st9{fill:#FFFFFF;stroke:#263238;stroke-linecap:round;stroke-linejoin:round;stroke-miterlimit:10;}
	.st10{fill:#263238;stroke:#263238;stroke-linecap:round;stroke-linejoin:round;stroke-miterlimit:10;}
	.st11{fill:#C6FF00;stroke:#263238;stroke-linecap:round;stroke-linejoin:round;stroke-miterlimit:10;}
	.st12{fill:none;stroke:#263238;stroke-linecap:round;stroke-linejoin:round;stroke-miterlimit:10;}
	.st13{fill:#263238;}
	.st14{fill:#B2B2B2;stroke:#263238;stroke-linecap:round;stroke-linejoin:round;stroke-miterlimit:10;}
</style>
<g id="Background_Simple">
	<rect class="st0" width="415.15" height="399.83"/>
	<rect class="st1" width="415.15" height="399.83"/>
</g>
<g id="Clouds">
	<g>
		<g>
			<path class="st0" d="M372.03,54.86c-4.7-2.56-6.83-0.43-8.54-2.56c-1.71-2.14,4.7-7.69-8.12-13.24c0,0-0.85-11.96-18.37-12.39
				c-17.51-0.43-12.81,11.96-17.51,14.95c-4.7,2.99-5.98-1.71-10.68,1.28c-4.7,2.99-2.56,8.97-6.41,9.82
				c-3.84,0.85-8.97-3.84-13.67-0.85c-4.7,2.99-4.7,5.55-6.83,5.55c-2.14,0-6.41-1.71-8.97,0c-2.56,1.71-5.55,3.84-5.55,3.84h108.06
				C375.44,61.27,376.73,57.42,372.03,54.86z"/>
		</g>
		<g class="st2">
			<path class="st3" d="M372.03,54.86c-4.7-2.56-6.83-0.43-8.54-2.56c-1.71-2.14,4.7-7.69-8.12-13.24c0,0-0.85-11.96-18.37-12.39
				c-17.51-0.43-12.81,11.96-17.51,14.95c-4.7,2.99-5.98-1.71-10.68,1.28c-4.7,2.99-2.56,8.97-6.41,9.82
				c-3.84,0.85-8.97-3.84-13.67-0.85c-4.7,2.99-4.7,5.55-6.83,5.55c-2.14,0-6.41-1.71-8.97,0c-2.56,1.71-5.55,3.84-5.55,3.84h108.06
				C375.44,61.27,376.73,57.42,372.03,54.86z"/>
		</g>
	</g>
	<g>
		<g>
			<path class="st0" d="M312.16,108.7c-2.87-1.57-4.18-0.26-5.23-1.57c-1.05-1.31,2.87-4.7-4.97-8.1c0,0-0.52-7.32-11.24-7.58
				c-10.72-0.26-7.84,7.32-10.72,9.15c-2.87,1.83-3.66-1.05-6.53,0.78c-2.88,1.83-1.57,5.49-3.92,6.01
				c-2.35,0.52-5.49-2.35-8.36-0.52c-2.87,1.83-2.87,3.4-4.18,3.4c-1.31,0-3.92-1.05-5.49,0c-1.57,1.05-3.4,2.35-3.4,2.35h66.12
				C314.26,112.62,315.04,110.27,312.16,108.7z"/>
		</g>
		<g class="st2">
			<path class="st3" d="M312.16,108.7c-2.87-1.57-4.18-0.26-5.23-1.57c-1.05-1.31,2.87-4.7-4.97-8.1c0,0-0.52-7.32-11.24-7.58
				c-10.72-0.26-7.84,7.32-10.72,9.15c-2.87,1.83-3.66-1.05-6.53,0.78c-2.88,1.83-1.57,5.49-3.92,6.01
				c-2.35,0.52-5.49-2.35-8.36-0.52c-2.87,1.83-2.87,3.4-4.18,3.4c-1.31,0-3.92-1.05-5.49,0c-1.57,1.05-3.4,2.35-3.4,2.35h66.12
				C314.26,112.62,315.04,110.27,312.16,108.7z"/>
		</g>
	</g>
</g>
<g id="Trees">
	<g>
		<g>
			<path class="st0" d="M182.08,193.7c0,0,22.7,2.25,34.2,16.32c0,0,12.15-16.3,33.99-15.97c6.33-7.64,10.15-17.44,10.15-28.14
				c0.01-24.37-19.74-44.13-44.1-44.13c-24.37-0.01-44.13,19.74-44.13,44.1c0,10.56,3.71,20.26,9.89,27.86L182.08,193.7z"/>
			<path class="st4" d="M182.08,193.7c0,0,22.7,2.25,34.2,16.32c0,0,12.15-16.3,33.99-15.97c6.33-7.64,10.15-17.44,10.15-28.14
				c0.01-24.37-19.74-44.13-44.1-44.13c-24.37-0.01-44.13,19.74-44.13,44.1c0,10.56,3.71,20.26,9.89,27.86L182.08,193.7z"/>
			<g>
				<polygon class="st5" points="215.54,124.89 214.77,355.17 218.6,355.17 				"/>
				<path class="st5" d="M216.69,205.73c0,0,7.66-13.79,21.45-18.01c0,0-14.56,3.45-21.84,15.32L216.69,205.73z"/>
				<path class="st5" d="M215.85,167.02c0,0,8.5-14.17,22.29-18.38c0,0-15.01,4.32-22.29,16.2V167.02z"/>
				<path class="st5" d="M216.15,187.17c0,0,8.2-14.77,21.99-18.99c0,0-14.91,4.13-22.19,16.01L216.15,187.17z"/>
				<path class="st5" d="M215.55,176.61c0,0-7.39-13.79-20.7-18.01c0,0,14.05,3.45,21.07,15.32L215.55,176.61z"/>
				<path class="st5" d="M215.55,195.77c0,0-7.39-13.79-20.7-18.01c0,0,14.05,3.45,21.07,15.32L215.55,195.77z"/>
			</g>
		</g>
		<g>
			<path class="st0" d="M51.8,160.13c0,0,39.64,3.92,59.73,28.5c0,0,21.23-28.47,59.35-27.89c11.06-13.34,17.72-30.46,17.73-49.14
				c0.01-42.56-34.47-77.07-77.03-77.08c-42.56-0.01-77.07,34.47-77.08,77.03c-0.01,18.45,6.47,35.38,17.28,48.65L51.8,160.13z"/>
			<path class="st6" d="M51.8,160.13c0,0,39.64,3.92,59.73,28.5c0,0,21.23-28.47,59.35-27.89c11.06-13.34,17.72-30.46,17.73-49.14
				c0.01-42.56-34.47-77.07-77.03-77.08c-42.56-0.01-77.07,34.47-77.08,77.03c-0.01,18.45,6.47,35.38,17.28,48.65L51.8,160.13z"/>
			<g>
				<polygon class="st5" points="110.23,39.95 108.89,355.17 115.58,355.17 				"/>
				<path class="st5" d="M112.23,181.13c0,0,13.38-24.09,37.47-31.45c0,0-25.43,6.02-38.14,26.76L112.23,181.13z"/>
				<path class="st5" d="M111.23,114.22c0,0,14.39-25.43,38.48-32.79c0,0-25.66,6.98-38.38,27.72L111.23,114.22z"/>
				<path class="st5" d="M111.63,147.87c0,0,13.99-24.95,38.08-32.31c0,0-25.43,6.02-38.14,26.76L111.63,147.87z"/>
				<path class="st5" d="M110.25,130.28c0,0-12.91-24.09-36.16-31.45c0,0,24.53,6.02,36.8,26.76L110.25,130.28z"/>
				<path class="st5" d="M110.25,163.74c0,0-12.91-24.09-36.16-31.45c0,0,24.53,6.02,36.8,26.76L110.25,163.74z"/>
			</g>
		</g>
	</g>
</g>
<g id="Plants">
	<g>
		<g>
			<g>
				<path class="st0" d="M336.69,238.29c-0.04,0,0.52-2.76,0.57-2.93c0.64-1.97,3.03-5.41,5.36-5.4c1.67,0,2.81,1.53,2.64,3.12
					c-0.17,1.63-1.63,3.02-2.96,3.82C340.75,237.84,336.7,238.29,336.69,238.29z"/>
				<path class="st0" d="M332.2,219.69c2.19,0.78,3.27,4.83,3.2,6.9c-0.01,0.18-0.42,2.97-0.46,2.95c0,0-0.04-0.02-0.04-0.02
					c0.18,0.64,0.36,1.32,0.54,2.08c0.33,1.39,0.69,2.97,0.96,4.71c0.28,1.74,0.53,3.64,0.62,5.66c0.09,2.03,0.08,4.17-0.22,6.37
					c0,0.02-0.01,0.05-0.01,0.08c0.29-0.62,1.14-2.32,1.22-2.44c1.14-1.73,4.36-4.42,6.59-3.8c1.61,0.44,2.3,2.21,1.72,3.71
					c-0.59,1.53-2.37,2.48-3.86,2.91c-1.68,0.48-5.43-0.09-5.72-0.13c-0.3,2.09-0.78,4.22-1.38,6.34c-0.34,1.21-0.73,2.43-1.13,3.64
					c0.26-0.53,0.51-0.99,0.55-1.06c1.14-1.73,4.36-4.42,6.59-3.8c1.61,0.44,2.3,2.21,1.72,3.71c-0.59,1.53-2.37,2.48-3.86,2.91
					c-1.51,0.43-4.71,0.01-5.56-0.11c-0.16,0.46-0.31,0.93-0.47,1.39c-0.77,2.22-1.54,4.43-2.24,6.62
					c-0.25,0.77-0.46,1.54-0.67,2.31c0.24-0.47,0.44-0.86,0.47-0.91c1.14-1.73,4.36-4.42,6.59-3.8c1.61,0.44,2.3,2.21,1.72,3.71
					c-0.59,1.53-2.37,2.48-3.86,2.91c-1.44,0.41-4.4,0.05-5.41-0.09c-0.2,0.79-0.4,1.59-0.55,2.37c-0.09,0.53-0.22,1.04-0.29,1.58
					c-0.08,0.53-0.15,1.06-0.22,1.59c-0.1,1.02-0.22,2.06-0.3,3.05c-0.06,0.69-0.1,1.35-0.15,2.01c0.23-0.77,0.73-2.27,0.78-2.39
					c0.57-1.25,1.99-3.05,3.55-4.05c0.08-0.19,0.18-0.36,0.3-0.53c0.92-1.31,2.77-1.72,4.04-0.63c1.76,1.52,1.32,5.68,0.51,7.59
					c-0.05,0.11-0.7,1.28-1.13,2.01c0.31-0.39,0.62-0.77,0.94-1.17c0.65-0.79,1.31-1.56,2.03-2.39c0.36-0.39,0.72-0.78,1.09-1.18
					c0.35-0.4,0.78-0.78,1.17-1.18c0.93-0.9,1.91-1.76,2.93-2.61c-0.69-0.57-3.11-2.61-3.81-4.01c-0.69-1.38-1.19-3.34-0.47-4.81
					c0.71-1.44,2.48-2.12,3.9-1.24c1.97,1.23,2.16,5.42,1.65,7.43c-0.03,0.13-0.56,1.53-0.86,2.29c0.61-0.51,1.22-1.01,1.86-1.51
					c1.84-1.42,3.74-2.8,5.63-4.18c0.58-0.42,1.15-0.85,1.73-1.28c-0.25-0.2-3.18-2.57-3.96-4.13c-0.69-1.38-1.19-3.34-0.47-4.81
					c0.71-1.44,2.48-2.12,3.9-1.24c1.97,1.23,2.16,5.42,1.65,7.43c-0.04,0.15-0.8,2.17-1.02,2.67c1.27-0.94,2.52-1.89,3.71-2.88
					c1.65-1.36,3.2-2.79,4.6-4.28c-0.12-0.09-3.19-2.55-3.99-4.15c-0.69-1.38-1.19-3.34-0.47-4.81c0.71-1.44,2.48-2.12,3.9-1.24
					c1.97,1.23,2.16,5.42,1.65,7.43c-0.03,0.13-0.61,1.67-0.91,2.39c0.06,0.04,0.05,0.03,0.11,0.07c1.48-1.62,2.7-3.37,3.77-5.06
					c0.62-0.98,1.16-1.95,1.66-2.91c-0.62-0.4-3.43-2.26-4.31-3.61c-0.84-1.3-1.55-3.19-0.99-4.73c0.55-1.51,2.23-2.38,3.74-1.66
					c2.09,1.01,2.75,5.15,2.46,7.2c-0.02,0.11-0.3,1.23-0.52,2.04c0.22-0.44,0.45-0.88,0.66-1.3c0.76-1.58,1.37-3.08,1.89-4.4
					c0.29-0.76,0.54-1.45,0.76-2.1c-0.4-0.71-1.99-3.59-2.14-5.17c-0.15-1.54,0.09-3.55,1.3-4.66c1.18-1.09,3.08-1.09,4.08,0.25
					c1.39,1.86,0.07,5.83-1.13,7.53c-0.1,0.15-1.99,2.25-2.01,2.21c0,0-0.02-0.03-0.02-0.04c-0.2,0.63-0.43,1.3-0.69,2.03
					c-0.49,1.34-1.07,2.86-1.8,4.46c-0.73,1.6-1.56,3.33-2.61,5.06c-1.04,1.74-2.23,3.52-3.69,5.19c-0.02,0.02-0.04,0.04-0.05,0.06
					c0.58-0.36,2.23-1.3,2.37-1.36c1.91-0.82,6.07-1.28,7.6,0.47c1.1,1.26,0.7,3.12-0.61,4.04c-1.34,0.95-3.35,0.76-4.83,0.29
					c-1.67-0.53-4.48-3.07-4.7-3.27c-1.41,1.58-2.98,3.09-4.65,4.53c-0.96,0.82-1.94,1.62-2.95,2.41c0.51-0.29,0.97-0.55,1.04-0.58
					c1.91-0.82,6.07-1.28,7.6,0.47c1.1,1.26,0.7,3.12-0.61,4.04c-1.34,0.95-3.35,0.76-4.83,0.29c-1.5-0.48-3.94-2.59-4.58-3.16
					c-0.39,0.3-0.77,0.6-1.16,0.9c-1.86,1.43-3.73,2.84-5.52,4.29c-0.63,0.51-1.23,1.03-1.84,1.56c0.45-0.26,0.84-0.47,0.9-0.5
					c1.91-0.82,6.07-1.28,7.6,0.47c1.1,1.26,0.7,3.12-0.61,4.04c-1.34,0.95-3.35,0.76-4.83,0.29c-1.43-0.45-3.7-2.39-4.46-3.06
					c-0.6,0.55-1.21,1.11-1.77,1.67c-0.37,0.39-0.76,0.75-1.11,1.16c-0.36,0.4-0.71,0.81-1.06,1.2c-0.65,0.79-1.32,1.6-1.93,2.38
					c-0.43,0.54-0.83,1.07-1.23,1.6c0.62-0.51,1.86-1.49,1.97-1.56c1.76-1.1,5.8-2.18,7.58-0.69c1.28,1.08,1.17,2.97,0.01,4.09
					c-1.18,1.14-3.19,1.26-4.73,1.02c-1.68-0.26-4.73-2.25-5.11-2.5c-0.67,0.88-1.3,1.73-1.9,2.55c-2.05,2.84-3.65,5.28-4.75,7
					c-0.04,0.06-0.07,0.12-0.11,0.18l-1.42-0.69c0.07-0.11,0.14-0.22,0.22-0.34c1.15-1.72,2.82-4.15,4.95-6.97
					c0.67-0.89,1.41-1.83,2.17-2.79c-0.2-0.22-1.31-1.45-2.21-2.73c-1.63,0.64-5.03,0.66-5.47,0.66c-0.07,1.1-0.13,2.17-0.17,3.18
					c-0.15,3.5-0.14,6.42-0.1,8.46c0,0.08,0,0.16,0,0.24l-1.56-0.76c0.02-2.03,0.08-4.77,0.28-8.01c0.07-1.12,0.16-2.31,0.27-3.53
					c-0.43-0.11-3.97-1.02-5.3-2.08c-1.21-0.97-2.48-2.53-2.44-4.17c0.04-1.6,1.36-2.97,3.02-2.76c2.3,0.3,4.24,4.01,4.61,6.05
					c0.02,0.12,0.12,1.45,0.17,2.29c0.05-0.5,0.09-0.98,0.14-1.5c0.1-1.01,0.23-2.02,0.37-3.11c0.08-0.52,0.17-1.05,0.26-1.58
					c0.07-0.53,0.22-1.08,0.33-1.63c0.28-1.26,0.62-2.53,1-3.79c-0.89-0.09-4.04-0.46-5.39-1.24c-1.34-0.77-2.84-2.13-3.04-3.76
					c-0.2-1.59,0.9-3.14,2.57-3.18c2.32-0.06,4.79,3.32,5.48,5.28c0.04,0.12,0.38,1.58,0.54,2.39c0.23-0.76,0.46-1.52,0.72-2.28
					c0.75-2.2,1.57-4.4,2.39-6.59c0.25-0.67,0.49-1.35,0.73-2.02c-0.32-0.03-4.07-0.39-5.58-1.26c-1.34-0.77-2.84-2.13-3.04-3.76
					c-0.2-1.59,0.9-3.14,2.57-3.18c2.32-0.06,4.79,3.32,5.48,5.28c0.05,0.15,0.53,2.25,0.62,2.79c0.54-1.48,1.06-2.97,1.51-4.45
					c0.63-2.05,1.13-4.09,1.47-6.1c-0.15-0.01-4.07-0.37-5.62-1.26c-1.34-0.77-2.84-2.13-3.04-3.76c-0.2-1.59,0.9-3.14,2.57-3.18
					c2.32-0.06,4.79,3.32,5.48,5.28c0.05,0.13,0.41,1.73,0.56,2.49c0.07,0,0.06,0,0.13,0c0.34-2.16,0.4-4.3,0.35-6.3
					c-0.02-1.16-0.11-2.27-0.22-3.34c-0.74,0.01-4.11,0.01-5.59-0.64c-1.42-0.62-3.06-1.8-3.44-3.4c-0.37-1.56,0.55-3.22,2.21-3.44
					c2.3-0.31,5.13,2.78,6.02,4.65c0.05,0.1,0.43,1.19,0.69,1.99c-0.06-0.48-0.11-0.99-0.17-1.45c-0.24-1.74-0.56-3.32-0.85-4.72
					c-0.18-0.79-0.35-1.51-0.52-2.17c-0.73-0.37-3.64-1.89-4.64-3.13c-0.97-1.2-1.88-3.01-1.48-4.6
					C329.04,220.17,330.62,219.12,332.2,219.69z"/>
				<path class="st0" d="M374.18,255.48c-1.82-0.07-5.44-1.93-5.45-1.94c-0.04-0.02,1.95-2.02,2.09-2.13
					c1.62-1.29,5.52-2.84,7.45-1.55c1.39,0.93,1.5,2.82,0.48,4.06C377.72,255.19,375.73,255.55,374.18,255.48z"/>
			</g>
			<g class="st2">
				<path class="st3" d="M336.69,238.29c-0.04,0,0.52-2.76,0.57-2.93c0.64-1.97,3.03-5.41,5.36-5.4c1.67,0,2.81,1.53,2.64,3.12
					c-0.17,1.63-1.63,3.02-2.96,3.82C340.75,237.84,336.7,238.29,336.69,238.29z"/>
				<path class="st3" d="M332.2,219.69c2.19,0.78,3.27,4.83,3.2,6.9c-0.01,0.18-0.42,2.97-0.46,2.95c0,0-0.04-0.02-0.04-0.02
					c0.18,0.64,0.36,1.32,0.54,2.08c0.33,1.39,0.69,2.97,0.96,4.71c0.28,1.74,0.53,3.64,0.62,5.66c0.09,2.03,0.08,4.17-0.22,6.37
					c0,0.02-0.01,0.05-0.01,0.08c0.29-0.62,1.14-2.32,1.22-2.44c1.14-1.73,4.36-4.42,6.59-3.8c1.61,0.44,2.3,2.21,1.72,3.71
					c-0.59,1.53-2.37,2.48-3.86,2.91c-1.68,0.48-5.43-0.09-5.72-0.13c-0.3,2.09-0.78,4.22-1.38,6.34c-0.34,1.21-0.73,2.43-1.13,3.64
					c0.26-0.53,0.51-0.99,0.55-1.06c1.14-1.73,4.36-4.42,6.59-3.8c1.61,0.44,2.3,2.21,1.72,3.71c-0.59,1.53-2.37,2.48-3.86,2.91
					c-1.51,0.43-4.71,0.01-5.56-0.11c-0.16,0.46-0.31,0.93-0.47,1.39c-0.77,2.22-1.54,4.43-2.24,6.62
					c-0.25,0.77-0.46,1.54-0.67,2.31c0.24-0.47,0.44-0.86,0.47-0.91c1.14-1.73,4.36-4.42,6.59-3.8c1.61,0.44,2.3,2.21,1.72,3.71
					c-0.59,1.53-2.37,2.48-3.86,2.91c-1.44,0.41-4.4,0.05-5.41-0.09c-0.2,0.79-0.4,1.59-0.55,2.37c-0.09,0.53-0.22,1.04-0.29,1.58
					c-0.08,0.53-0.15,1.06-0.22,1.59c-0.1,1.02-0.22,2.06-0.3,3.05c-0.06,0.69-0.1,1.35-0.15,2.01c0.23-0.77,0.73-2.27,0.78-2.39
					c0.57-1.25,1.99-3.05,3.55-4.05c0.08-0.19,0.18-0.36,0.3-0.53c0.92-1.31,2.77-1.72,4.04-0.63c1.76,1.52,1.32,5.68,0.51,7.59
					c-0.05,0.11-0.7,1.28-1.13,2.01c0.31-0.39,0.62-0.77,0.94-1.17c0.65-0.79,1.31-1.56,2.03-2.39c0.36-0.39,0.72-0.78,1.09-1.18
					c0.35-0.4,0.78-0.78,1.17-1.18c0.93-0.9,1.91-1.76,2.93-2.61c-0.69-0.57-3.11-2.61-3.81-4.01c-0.69-1.38-1.19-3.34-0.47-4.81
					c0.71-1.44,2.48-2.12,3.9-1.24c1.97,1.23,2.16,5.42,1.65,7.43c-0.03,0.13-0.56,1.53-0.86,2.29c0.61-0.51,1.22-1.01,1.86-1.51
					c1.84-1.42,3.74-2.8,5.63-4.18c0.58-0.42,1.15-0.85,1.73-1.28c-0.25-0.2-3.18-2.57-3.96-4.13c-0.69-1.38-1.19-3.34-0.47-4.81
					c0.71-1.44,2.48-2.12,3.9-1.24c1.97,1.23,2.16,5.42,1.65,7.43c-0.04,0.15-0.8,2.17-1.02,2.67c1.27-0.94,2.52-1.89,3.71-2.88
					c1.65-1.36,3.2-2.79,4.6-4.28c-0.12-0.09-3.19-2.55-3.99-4.15c-0.69-1.38-1.19-3.34-0.47-4.81c0.71-1.44,2.48-2.12,3.9-1.24
					c1.97,1.23,2.16,5.42,1.65,7.43c-0.03,0.13-0.61,1.67-0.91,2.39c0.06,0.04,0.05,0.03,0.11,0.07c1.48-1.62,2.7-3.37,3.77-5.06
					c0.62-0.98,1.16-1.95,1.66-2.91c-0.62-0.4-3.43-2.26-4.31-3.61c-0.84-1.3-1.55-3.19-0.99-4.73c0.55-1.51,2.23-2.38,3.74-1.66
					c2.09,1.01,2.75,5.15,2.46,7.2c-0.02,0.11-0.3,1.23-0.52,2.04c0.22-0.44,0.45-0.88,0.66-1.3c0.76-1.58,1.37-3.08,1.89-4.4
					c0.29-0.76,0.54-1.45,0.76-2.1c-0.4-0.71-1.99-3.59-2.14-5.17c-0.15-1.54,0.09-3.55,1.3-4.66c1.18-1.09,3.08-1.09,4.08,0.25
					c1.39,1.86,0.07,5.83-1.13,7.53c-0.1,0.15-1.99,2.25-2.01,2.21c0,0-0.02-0.03-0.02-0.04c-0.2,0.63-0.43,1.3-0.69,2.03
					c-0.49,1.34-1.07,2.86-1.8,4.46c-0.73,1.6-1.56,3.33-2.61,5.06c-1.04,1.74-2.23,3.52-3.69,5.19c-0.02,0.02-0.04,0.04-0.05,0.06
					c0.58-0.36,2.23-1.3,2.37-1.36c1.91-0.82,6.07-1.28,7.6,0.47c1.1,1.26,0.7,3.12-0.61,4.04c-1.34,0.95-3.35,0.76-4.83,0.29
					c-1.67-0.53-4.48-3.07-4.7-3.27c-1.41,1.58-2.98,3.09-4.65,4.53c-0.96,0.82-1.94,1.62-2.95,2.41c0.51-0.29,0.97-0.55,1.04-0.58
					c1.91-0.82,6.07-1.28,7.6,0.47c1.1,1.26,0.7,3.12-0.61,4.04c-1.34,0.95-3.35,0.76-4.83,0.29c-1.5-0.48-3.94-2.59-4.58-3.16
					c-0.39,0.3-0.77,0.6-1.16,0.9c-1.86,1.43-3.73,2.84-5.52,4.29c-0.63,0.51-1.23,1.03-1.84,1.56c0.45-0.26,0.84-0.47,0.9-0.5
					c1.91-0.82,6.07-1.28,7.6,0.47c1.1,1.26,0.7,3.12-0.61,4.04c-1.34,0.95-3.35,0.76-4.83,0.29c-1.43-0.45-3.7-2.39-4.46-3.06
					c-0.6,0.55-1.21,1.11-1.77,1.67c-0.37,0.39-0.76,0.75-1.11,1.16c-0.36,0.4-0.71,0.81-1.06,1.2c-0.65,0.79-1.32,1.6-1.93,2.38
					c-0.43,0.54-0.83,1.07-1.23,1.6c0.62-0.51,1.86-1.49,1.97-1.56c1.76-1.1,5.8-2.18,7.58-0.69c1.28,1.08,1.17,2.97,0.01,4.09
					c-1.18,1.14-3.19,1.26-4.73,1.02c-1.68-0.26-4.73-2.25-5.11-2.5c-0.67,0.88-1.3,1.73-1.9,2.55c-2.05,2.84-3.65,5.28-4.75,7
					c-0.04,0.06-0.07,0.12-0.11,0.18l-1.42-0.69c0.07-0.11,0.14-0.22,0.22-0.34c1.15-1.72,2.82-4.15,4.95-6.97
					c0.67-0.89,1.41-1.83,2.17-2.79c-0.2-0.22-1.31-1.45-2.21-2.73c-1.63,0.64-5.03,0.66-5.47,0.66c-0.07,1.1-0.13,2.17-0.17,3.18
					c-0.15,3.5-0.14,6.42-0.1,8.46c0,0.08,0,0.16,0,0.24l-1.56-0.76c0.02-2.03,0.08-4.77,0.28-8.01c0.07-1.12,0.16-2.31,0.27-3.53
					c-0.43-0.11-3.97-1.02-5.3-2.08c-1.21-0.97-2.48-2.53-2.44-4.17c0.04-1.6,1.36-2.97,3.02-2.76c2.3,0.3,4.24,4.01,4.61,6.05
					c0.02,0.12,0.12,1.45,0.17,2.29c0.05-0.5,0.09-0.98,0.14-1.5c0.1-1.01,0.23-2.02,0.37-3.11c0.08-0.52,0.17-1.05,0.26-1.58
					c0.07-0.53,0.22-1.08,0.33-1.63c0.28-1.26,0.62-2.53,1-3.79c-0.89-0.09-4.04-0.46-5.39-1.24c-1.34-0.77-2.84-2.13-3.04-3.76
					c-0.2-1.59,0.9-3.14,2.57-3.18c2.32-0.06,4.79,3.32,5.48,5.28c0.04,0.12,0.38,1.58,0.54,2.39c0.23-0.76,0.46-1.52,0.72-2.28
					c0.75-2.2,1.57-4.4,2.39-6.59c0.25-0.67,0.49-1.35,0.73-2.02c-0.32-0.03-4.07-0.39-5.58-1.26c-1.34-0.77-2.84-2.13-3.04-3.76
					c-0.2-1.59,0.9-3.14,2.57-3.18c2.32-0.06,4.79,3.32,5.48,5.28c0.05,0.15,0.53,2.25,0.62,2.79c0.54-1.48,1.06-2.97,1.51-4.45
					c0.63-2.05,1.13-4.09,1.47-6.1c-0.15-0.01-4.07-0.37-5.62-1.26c-1.34-0.77-2.84-2.13-3.04-3.76c-0.2-1.59,0.9-3.14,2.57-3.18
					c2.32-0.06,4.79,3.32,5.48,5.28c0.05,0.13,0.41,1.73,0.56,2.49c0.07,0,0.06,0,0.13,0c0.34-2.16,0.4-4.3,0.35-6.3
					c-0.02-1.16-0.11-2.27-0.22-3.34c-0.74,0.01-4.11,0.01-5.59-0.64c-1.42-0.62-3.06-1.8-3.44-3.4c-0.37-1.56,0.55-3.22,2.21-3.44
					c2.3-0.31,5.13,2.78,6.02,4.65c0.05,0.1,0.43,1.19,0.69,1.99c-0.06-0.48-0.11-0.99-0.17-1.45c-0.24-1.74-0.56-3.32-0.85-4.72
					c-0.18-0.79-0.35-1.51-0.52-2.17c-0.73-0.37-3.64-1.89-4.64-3.13c-0.97-1.2-1.88-3.01-1.48-4.6
					C329.04,220.17,330.62,219.12,332.2,219.69z"/>
				<path class="st3" d="M374.18,255.48c-1.82-0.07-5.44-1.93-5.45-1.94c-0.04-0.02,1.95-2.02,2.09-2.13
					c1.62-1.29,5.52-2.84,7.45-1.55c1.39,0.93,1.5,2.82,0.48,4.06C377.72,255.19,375.73,255.55,374.18,255.48z"/>
			</g>
		</g>
		<g>
			<g>
				<path class="st0" d="M352.99,300.93c0,0-11.01-26.55-17.18-25.39c-6.17,1.15,10.57,42.32,10.57,42.32s-19.38-36.55-32.59-36.55
					c-13.21,0,4.84,40.4,21.58,53.86c0,0-26.42-28.47-41.84-22.31c-15.41,6.16,30.83,35.01,30.83,35.01s-26.86-8.46-23.78-1.92
					c3.08,6.54,11.45,7.69,11.45,7.69l-30.39,1.54h105.69l-23.78-2.31c0,0,24.66-12.31,18.06-17.31c-6.61-5-21.14,5.77-21.14,5.77
					s25.1-27.7,20.26-38.09c-4.84-10.39-26.42,18.85-26.42,18.85s17.62-37.32,14.09-43.86
					C364.88,271.69,352.99,300.93,352.99,300.93z"/>
				<path class="st7" d="M352.99,300.93c0,0-11.01-26.55-17.18-25.39c-6.17,1.15,10.57,42.32,10.57,42.32s-19.38-36.55-32.59-36.55
					c-13.21,0,4.84,40.4,21.58,53.86c0,0-26.42-28.47-41.84-22.31c-15.41,6.16,30.83,35.01,30.83,35.01s-26.86-8.46-23.78-1.92
					c3.08,6.54,11.45,7.69,11.45,7.69l-30.39,1.54h105.69l-23.78-2.31c0,0,24.66-12.31,18.06-17.31c-6.61-5-21.14,5.77-21.14,5.77
					s25.1-27.7,20.26-38.09c-4.84-10.39-26.42,18.85-26.42,18.85s17.62-37.32,14.09-43.86
					C364.88,271.69,352.99,300.93,352.99,300.93z"/>
			</g>
			<g>
				<path class="st8" d="M356.51,302.33c-9.69,28.63-9.69,48.88-9.69,48.88s11.45,0.44,23.34-8.37"/>
				<path class="st8" d="M351.67,317.74c0,0-2.2-10.57-7.93-25.1"/>
				<path class="st8" d="M323.04,301.01l24.66,36.55c0,0,16.74-14.09,22.46-22.02"/>
				<path class="st8" d="M347.26,346.37c0,0-25.98-12.33-36.55-19.38"/>
			</g>
		</g>
	</g>
</g>
<g id="Character_4">
	<g>
		<g>
			<path class="st9" d="M323.25,274.27c0,0-0.58,20.19,1.92,29.42c2.5,9.23,7.88,29.62,8.85,33.85c0.96,4.23-0.38,10.96-0.38,10.96
				s-9.42,4.23-10.58,4.62c-1.15,0.38,0.19,1.54,2.31,1.92c2.12,0.38,17.31,1.15,18.08-0.77c0.77-1.92,0.58-8.65,1.35-12.12
				c0.77-3.46,5.96-15.58,3.46-24.23s-3.46-16.35-2.69-19.81c0.77-3.46,3.27-12.31,4.04-13.27c0.77-0.96,4.81-3.65,6.35-6.35
				c1.54-2.69,1.73-6.15,1.73-6.15S335.17,276.77,323.25,274.27z"/>
			<path class="st10" d="M355.94,278.5c1.54-2.69,1.73-6.15,1.73-6.15s-22.5,4.42-34.42,1.92c0,0-0.58,20.19,1.92,29.42
				c2.5,9.23,7.88,29.62,8.85,33.85c0.2,0.88,0.3,1.86,0.33,2.87c2.97,1.01,6.83,1.76,10.68,0.85c1.25-4.32,5.54-15.31,3.22-23.33
				c-2.5-8.65-3.46-16.35-2.69-19.81c0.77-3.46,3.27-12.31,4.04-13.27C350.37,283.88,354.4,281.19,355.94,278.5z"/>
			<path class="st11" d="M336.71,351.19l-3.08-2.69c0,0-9.42,4.23-10.58,4.62c-1.15,0.38,0.19,1.54,2.31,1.92
				c2.12,0.38,17.31,1.15,18.08-0.77c0.33-0.83,0.49-2.57,0.61-4.55L336.71,351.19z"/>
		</g>
		<g>
			<path class="st11" d="M327.48,199.46c0,0,2.31,3.27,1.54,8.08c-0.77,4.81-6.35,12.5-10.58,16.35
				c-4.23,3.85-4.04,10.38-1.73,13.65c2.31,3.27,3.46,3.27,3.46,3.27l-7.31,33.85c0,0,12.69,2.5,21.92,2.5s11.92-0.19,16.54-1.35
				c4.62-1.15,12.69-3.08,12.69-3.08s-6.92-27.31-6.92-34.62c0-7.31,0.77-14.81,0.77-14.81s1.35-7.31-5-18.08
				c-6.35-10.77-16.54-11.73-20.58-10.77C328.25,195.42,327.48,199.46,327.48,199.46z"/>
			<path class="st12" d="M320.17,240.81c0,0,5,2.31,10,0.19"/>
			<line class="st12" x1="325.56" y1="242.54" x2="325.56" y2="250.81"/>
			<line class="st12" x1="323.44" y1="241.96" x2="321.9" y2="262.73"/>
		</g>
		<path class="st9" d="M352.87,205.23c-6.35-10.77-16.54-11.73-20.58-10.77c-4.04,0.96-4.81,5-4.81,5s2.31,3.27,1.54,8.08
			c-0.65,4.05-4.71,10.14-8.5,14.26c1.38,0.3,3.83,0,7.15-3.68c5.38-5.96,9.62-9.42,14.62-10.96c3.63-1.12,8.27,0.7,11.21-0.79
			C353.29,205.98,353.09,205.61,352.87,205.23z"/>
		<g>
			<path class="st9" d="M320.36,175.42c0,0-1.35,3.85-1.15,6.15c0.19,2.31,0.96,3.46-0.19,5.58c-1.15,2.12-3.27,3.46-2.69,4.42
				c0.58,0.96,3.46,1.73,3.46,1.73s1.15,7.12,2.5,7.88c1.35,0.77,9.81-3.08,11.54-3.65c1.73-0.58,4.04-5.58,2.69-13.27
				S325.94,172.15,320.36,175.42z"/>
			<path class="st13" d="M323.06,186.67c0,0.69-0.3,1.25-0.67,1.25c-0.37,0-0.67-0.56-0.67-1.25c0-0.69,0.3-1.25,0.67-1.25
				C322.75,185.42,323.06,185.98,323.06,186.67z"/>
			<path class="st12" d="M321.13,183.5c0,0,2.31-1.54,3.46,0.96"/>
		</g>
		<path class="st10" d="M317.18,173.14c-0.52,0.64-0.49,1.55,0.08,2.14c1.08,1.11,2.99,2.86,5.22,3.98
			c3.46,1.73,8.08,4.62,8.08,7.88c0,3.27-1.92,12.69,0,15.96c1.92,3.27,7.12,6.35,10.19,6.73c3.08,0.38,7.5,3.65,8.65,9.04
			c1.15,5.38,2.88,12.31,9.42,10.96c6.54-1.35,7.88-10.58,5.19-14.81c-2.69-4.23-5.19-4.42-3.08-9.04
			c2.12-4.62,0.77-10.77-3.85-14.62c-4.62-3.85-8.27-1.73-8.65-6.35c-0.38-4.62-1.99-11.05-5.38-15.58
			C339.16,164.26,325.39,163,317.18,173.14z"/>
		<g>
			<path class="st9" d="M334.98,266.77c0,0-0.96,10.77-1.73,11.92c-0.77,1.15-4.04,4.04-4.62,5.38c-0.58,1.35,0.77,6.35,0.77,6.35
				s1.15,1.15,2.12,0.77c0.96-0.38,0.58-1.15,0.58-1.15s-0.58-1.15,0-1.54c0.58-0.38,2.88-0.96,3.65-2.88
				c0.77-1.92,1.15-4.23,1.15-4.23l4.81-12.89L334.98,266.77z"/>
			<path class="st11" d="M331.52,222.92c0,0-0.38,9.81,0.19,13.85c0.58,4.04,0.96,15.96-0.19,20.58
				c-1.15,4.62-0.38,10.77-0.38,10.77s6.15,2.88,9.23,2.5c3.08-0.38,5.19-0.77,5.19-0.77s3.46-15,4.04-21.73
				c0.58-6.73-0.77-27.89-0.77-27.89"/>
		</g>
	</g>
</g>
<g id="Character_2">
	<g>
		<rect x="231.17" y="215.24" class="st11" width="22.71" height="25.02"/>
		<g>
			
				<ellipse transform="matrix(0.9734 -0.2289 0.2289 0.9734 -45.8625 61.6338)" class="st3" cx="242.71" cy="228.48" rx="8.28" ry="8.28"/>
			<g>
				<path class="st9" d="M237.37,224.3c0,0,2.6,1.38,6.09,1.79c3.49,0.41,5.04-0.08,5.04-0.08s-0.74,3.43-0.63,5.95
					c0.07,1.6-5.21,1.93-7.97,0.87c-2.26-0.87-3.49-1.87-3.49-1.87S236.55,226.25,237.37,224.3z"/>
				<path class="st12" d="M237.12,226.09c0,0,4.06,3.09,10.88,1.87"/>
				<path class="st12" d="M236.72,227.88c0,0,3.28,3.6,10.94,1.92"/>
				<path class="st12" d="M236.47,229.83c0,0,6.5,3.98,11.29,1.71"/>
				<path class="st12" d="M248.49,226.01c0,0,2.6-2.84,3.33-1.06c0.73,1.79-0.32,6.09-3.82,7.31"/>
				<path class="st12" d="M237.37,224.3c0,0,0.08-2.35-1.3-2.76c-1.38-0.41-0.97,5.93,0.32,9.01"/>
			</g>
		</g>
		<path class="st9" d="M193.32,191.48c0,0-2.73,4.42-3.57,6.73c-0.84,2.31-1.68,6.1-1.68,6.1l-7.78-4l5.05-13.25L193.32,191.48z"/>
		<path class="st10" d="M200.68,171.29c0,0,3.15,1.05,4.42-2.73c1.26-3.79-3.57-7.36-10.3-9.25c-6.73-1.89-17.66,4.63-19.77,9.67
			s-0.21,10.51-2.94,14.3c-2.73,3.79-12.62,4.63-13.67,14.72c-1.05,10.09,5.26,13.88,3.79,17.45c-1.47,3.57-7.57,5.68-6.52,13.67
			c1.05,7.99,12.83,12.2,18.08,9.04c5.26-3.15,7.15-9.88,5.47-18.08c-1.68-8.2-2.52-16.61,1.89-19.77c4.42-3.15,9.46-9.25,9.88-12.2
			c0.42-2.94-0.63-3.57,1.89-4.42C195.43,182.86,200.05,177.18,200.68,171.29z"/>
		<path class="st10" d="M185.24,257.84c0,0,3,19,4,31.75s-0.36,22,0,29.75c0.75,16,3,27.75,3,27.75s9.5,4,10.75,4.75s3,0.75,3,1.75
			s-7.25,2.75-11.5,1c-2.13-0.88-7.25,0.25-9.5-0.75c-1.44-0.64,0-4.5,0-7s-4.25-15.75-5.25-22s-2-8.25-1.25-12.75s1-9.75,1-9.75
			s-7.33-27.82-8.66-31.79c-1.34-3.96-2.09-7.71-2.09-7.71"/>
		<path class="st9" d="M202.99,351.84c-1.25-0.75-10.75-4.75-10.75-4.75s-0.93-4.87-1.8-12.6c-3.28,1.68-6.07,1.76-8.07,1.39
			c1.33,4.94,2.62,9.58,2.62,10.96c0,2.5-1.44,6.36,0,7c2.25,1,7.37-0.13,9.5,0.75c4.25,1.75,11.5,0,11.5-1
			S204.24,352.59,202.99,351.84z"/>
		<path class="st9" d="M184.8,348.8c-0.34,2.2-0.91,4.55,0.19,5.04c2.25,1,7.37-0.13,9.5,0.75c4.25,1.75,11.5,0,11.5-1
			s-1.75-1-3-1.75s-10.75-4.75-10.75-4.75l-1,3L184.8,348.8z"/>
		<path class="st10" d="M179.44,196.53c0,0,4-1.05,7.99,2.1c4,3.15,4.84,8.41,8.2,13.67c3.36,5.26,3.79,9.88,2.52,12.83
			c-1.26,2.94-5.26,12.41-7.36,18.29c-2.1,5.89-2.94,15.35-4.21,21.66c-1.26,6.31-11.78,6.73-15.77,5.47
			c-4-1.26-8.17-6.52-8.59-13.46c-0.42-6.94,3.16-10.07,4-11.75c0.84-1.68,9.63-15.16,7.53-21.89c-2.1-6.73-1.26-14.72,0.21-18.72
			C175.45,200.73,178.18,197.16,179.44,196.53z"/>
		<path class="st11" d="M187.44,198.63c-4-3.15-7.99-2.1-7.99-2.1c-1.26,0.63-4,4.21-5.47,8.2c-1.47,4-2.31,11.99-0.21,18.72
			c2.1,6.73-6.69,20.21-7.53,21.89c0,0,6.19,6.77,22.48,6.8c0.56-3.2,1.21-6.27,2.09-8.71c2.1-5.89,6.1-15.35,7.36-18.29
			c1.26-2.94,0.84-7.57-2.52-12.83C192.27,207.04,191.43,201.79,187.44,198.63z"/>
		<g>
			<path class="st9" d="M228.23,232.7l-31.54,3.15c0,0-2.52-0.63-3.15-1.89c-0.52-1.05-10.48-17.92-13.84-23.6
				c-1.08-1.83-1.62-3.95-1.33-6.05c0.29-2.1,1.39-4.21,4.65-4.21c5.3,0,9.28,7.96,10.59,10.95c0.46,1.04,0.96,2.07,1.48,3.08
				l5.17,9.94l29.23,3.57c0,0,4.84-2.94,5.68-3.36c0.84-0.42,3.57-0.63,5.05-0.84c1.47-0.21,2.52-1.47,2.52-0.21
				c0,1.26-1.05,1.47-1.68,1.68s-3.15,1.05-3.15,1.05l7.82,1.91c0.45,0.11,0.75,0.55,0.67,1.01l0,0c-0.07,0.47-0.5,0.8-0.97,0.75
				l-5.6-0.54l5.29,2.55c0.41,0.2,0.58,0.69,0.39,1.1l0,0c-0.16,0.35-0.55,0.55-0.93,0.47l-5.58-1.21l4.15,2.39l0.93,0.83
				c-0.31,1.35-1.68,0.58-2.42,0.23l-3.39-1.58l2.91,3.22l0,0c-0.95,0-1.87-0.3-2.64-0.85l-3.18-2.27l-5.3-1.56L228.23,232.7z"/>
			<path class="st11" d="M195.61,215.12l-0.51-0.99c-0.53-1.01-1.03-2.04-1.48-3.08c-1.31-2.99-5.29-10.95-10.59-10.95
				c-3.26,0-4.36,2.1-4.65,4.21c-0.29,2.1,0.25,4.23,1.33,6.06c1.29,2.19,3.57,6.04,5.9,10.01L195.61,215.12z"/>
		</g>
		<path class="st10" d="M166.24,261.59c0,0,0,11.5,1,21.5s1.25,21.25,0.25,23s-6,10.5-7,14.75s-1.75,22-3.25,26s-2,6.75-1,7.25
			s13.08,1.06,15.67,1.37c2.59,0.31,5.75-0.49,5.83-1.52s-4.54-2.76-8.3-5.41c-3.76-2.64-3.44-5.94-3.44-8.44s5.75-18,10.5-29.25
			s9-39.25,9-43.75s0-7.5,0-7.5"/>
		<path class="st9" d="M169.43,348.53c-3.76-2.64-3.44-5.94-3.44-8.44c0-0.4,0.15-1.13,0.41-2.12c-3.45-0.08-5.91-0.76-7.59-1.52
			c-0.44,4.55-0.94,8.7-1.58,10.39c-1.5,4-2,6.75-1,7.25s13.08,1.06,15.67,1.37c2.59,0.31,5.75-0.49,5.83-1.52
			S173.19,351.17,169.43,348.53z"/>
		<path class="st9" d="M177.73,353.93c0.07-1.03-4.54-2.76-8.3-5.41c-1.6-1.13-2.46-2.37-2.92-3.63c-0.51,0.03-0.98,0.14-1.27,0.44
			c-1,1-1.25,4-1.25,4l-7.06-1.64c-1.25,3.52-1.62,5.93-0.69,6.39c1,0.5,13.08,1.06,15.67,1.37
			C174.5,355.76,177.66,354.96,177.73,353.93z"/>
		<g>
			<g>
				<path class="st9" d="M199.42,167.72c0,0,2.73,4.21,2.73,6.52c0,2.31-0.63,4.21-0.63,5.68c0,1.47,1.26,3.15,1.26,4.42
					s-1.89,6.73-3.15,8.2s-2.52,2.94-4.84,2.73c-2.31-0.21-8.62-6.31-8.62-6.31s-3.15,2.31-4.21-1.47c-1.05-3.79-1.05-5.68,0.63-6.1
					c1.68-0.42,2.73,0.84,2.73,0.84s8.2-0.42,10.93-5.05C199,172.56,199.42,167.72,199.42,167.72z"/>
				<path class="st11" d="M186.17,188.96c0,0,6.31,6.1,8.62,6.31c2.31,0.21,3.57-1.26,4.84-2.73c1.26-1.47,3.15-6.94,3.15-8.2
					c0-0.8-0.51-1.77-0.88-2.75c-6.83,1.7-16.57,0.65-16.57,0.65l7.15,2.31l-1.26,5.47L186.17,188.96z"/>
			</g>
			<path class="st13" d="M199.71,180.03c0,0.81-0.27,1.47-0.6,1.47c-0.33,0-0.6-0.66-0.6-1.47c0-0.81,0.27-1.47,0.6-1.47
				C199.44,178.56,199.71,179.22,199.71,180.03z"/>
			<path class="st12" d="M197.46,177.35c0,0,0.86-2.77,2.94-0.69"/>
		</g>
	</g>
</g>
<g id="Character_3">
	<g>
		<path class="st9" d="M279.69,345.23c0,0-9,5.1-11.46,6.29c-2.46,1.18-4.1,2.11,0.39,3.35c4.49,1.24,17.08,0.37,19.18,0.26
			c2.1-0.11,2.97,0.48,2.85-1.83c-0.12-2.31,0-8,0-8S280.98,345.79,279.69,345.23z"/>
		<path class="st10" d="M280.38,208.2c0,0-6.52,11.57-6.73,14.72c-0.21,3.15-0.21,4.84-0.21,4.84s-5.05,11.99-6.73,18.29
			s1.26,15.35,2.52,18.29c1.26,2.94,2.73,5.68,2.73,5.68s2.31,23.34,2.52,30.28c0.21,6.94,2.52,16.4,3.36,22.71
			s2.94,17.03,2.94,17.03s-2.31,1.47-2.31,2.52c0,1.05-0.21,3.15-0.21,3.15s1.26,0,4.21,1.05c2.94,1.05,8.62,0.21,8.62,0.21
			s1.26-7.36,1.26-11.99c0-4.63,1.68-18.72,1.05-23.55c-0.63-4.84-1.26-12.83-1.05-13.88c0.21-1.05,2.31-22.5,2.31-22.5
			s4.84-6.31,4.84-15.35c0-9.04-0.42-10.93-0.42-10.93s2.31-27.13,1.26-36.59c-1.05-9.46-6.1-11.78-6.1-11.78L280.38,208.2z"/>
		<path class="st9" d="M300.36,212.2c-1.05-9.46-6.1-11.78-6.1-11.78l-13.88,7.78c0,0-6.52,11.57-6.73,14.72
			c-0.21,3.15-0.21,4.84-0.21,4.84s-5.05,11.99-6.73,18.29c-0.44,1.64-0.56,3.47-0.48,5.33c2.42,1.88,7.76,4.78,17.51,4.35
			c8.31-0.37,13.06-2.58,15.59-4.37c-0.11-2-0.24-2.57-0.24-2.57S301.41,221.66,300.36,212.2z"/>
		<g>
			<g>
				<path class="st9" d="M277.65,163.2c0,0-7.99,3.57-8.83,7.78c-0.84,4.21,0.63,10.51,0.63,11.57s-2.94,4-1.89,4.84
					c1.05,0.84,2.1,0.63,2.1,0.63s1.89,5.05,3.15,7.15c1.26,2.1,2.94,1.89,3.57,1.89c0.63,0,2.94-0.42,2.94-0.42l2.73,7.99
					l9.88-7.78c0,0-1.68-4.63-0.84-7.15c0.84-2.52,4.84-6.73,5.47-12.83c0.63-6.1-5.26-13.67-10.3-14.51
					C281.22,161.52,277.65,163.2,277.65,163.2z"/>
				<path class="st14" d="M286.27,162.36c-5.05-0.84-8.62,0.84-8.62,0.84s-0.71,0.32-1.72,0.87c1.72-0.73,4.7-1.52,5.29,1.44
					c0.84,4.21-4.63,6.94-3.79,8.83c0.84,1.89,4,2.52,4.84,4.84c0.84,2.31,1.89,3.36,2.73,2.31c0.84-1.05,0.42-3.15,1.89-3.57
					c1.47-0.42,3.57,2.73,3.57,5.26c0,2.52-2.73,3.57-2.73,3.57s1.05,1.89,3.57,2.1c0.05,0,0.1,0,0.15,0
					c1.28-2.58,4.54-6.52,5.11-11.99C297.2,170.77,291.32,163.2,286.27,162.36z"/>
				<path class="st14" d="M269.66,188.02c0,0,6.73-1.89,8.62-1.05c1.89,0.84-0.84,3.15-3.15,3.57
					C272.81,190.96,269.66,191.38,269.66,188.02z"/>
				<path class="st13" d="M273.23,180.87c0,0.93-0.28,1.68-0.63,1.68c-0.35,0-0.63-0.75-0.63-1.68c0-0.93,0.28-1.68,0.63-1.68
					C272.95,179.19,273.23,179.94,273.23,180.87z"/>
				<path class="st12" d="M270.92,177.5c0,0,1.68-1.47,3.36,0.21"/>
				<path class="st12" d="M279.33,196.64c0,0,5.26-1.26,7.36-5.68"/>
			</g>
			<path class="st9" d="M278.07,205.68l1.47,4.63l16.4-10.09l-1.89-5.89C294.05,194.33,279.54,202.95,278.07,205.68z"/>
		</g>
		<path class="st9" d="M284.59,238.91c0,0-17.24,1.05-21.03,1.05s-8.2-1.26-8.2-1.26s-2.1-2.94-2.94-3.79
			c-0.84-0.84-2.73-1.05-4.63-1.05c-1.89,0-3.57-0.84-3.57,0.42c0,1.26,0.84,1.26,1.68,1.68c0.84,0.42,2.52,1.26,2.52,1.26
			s-6.31,0.21-7.15,0.21s-2.73-1.26-2.52,0.42c0.21,1.68,1.68,1.89,3.15,1.89c1.47,0,6.31,2.31,7.78,2.31s5.26,0.21,5.26,0.21
			s8.62,1.68,14.3,4c5.68,2.31,18.93,3.15,20.4,2.1c1.47-1.05,1.68-9.46,1.68-9.46H284.59z"/>
		<path class="st9" d="M282.06,219.14l-1.47,19.35c0,0,2.31,2.1,6.52,2.1c4.21,0,8.41-1.05,8.41-1.05s1.47-19.56,0.63-23.55
			c-0.84-4-1.68-4.63-3.57-4.63"/>
	</g>
</g>
<g id="Character_1">
	<g>
		<path class="st9" d="M91.92,344.75c0,0-10.16,5.28-12.67,6.52c-2.51,1.24-4.18,2.22,0.4,3.54c4.58,1.32,17.4,0.42,19.55,0.31
			c2.14-0.11,3.03,0.51,2.9-1.93c-0.13-2.44-0.43-7.32-0.43-7.32S93.24,345.35,91.92,344.75z"/>
		<path class="st9" d="M136.82,343.63c0,0-1.28,3.52-2.72,5.43c-1.44,1.92-5.59,4.31-5.59,5.27s0,0.96,0,0.96h16.55
			c0,0,1.83-1.44,1.83-2.56s-0.96-8.15-0.96-8.15L136.82,343.63z"/>
		<path class="st10" d="M102.63,255.91c0,0-3.36,10.55-6.39,21.25c-3.04,10.71-6.71,23.33-7.35,28.6
			c-0.64,5.27,3.67,34.99,3.67,34.99s-1.28,0.8-1.12,2.08c0.16,1.28,0.48,1.92,0.48,1.92s5.43,1.44,6.87,1.44
			c1.44,0,2.88-0.32,2.88-0.32s0.8-31.16,0.8-34.83c0-3.67-0.32-5.43-0.32-5.43l13.93-32.72l2.52,0.61c0,0,2.4,29.4,3.04,32.92
			c0.64,3.52,14.22,33.71,14.22,33.71s-0.48,2.4,0,3.52c0.48,1.12,0.48,1.6,0.48,1.6s1.76,0.48,3.99,0.48
			c2.24,0,5.59-1.12,5.59-1.12s-0.32-2.24-0.8-4.47c-0.48-2.24-1.92-6.07-1.92-6.07l-7.67-31.16c0,0,2.56-39.15,2.4-43.14
			c-0.16-3.99-1.6-7.67-1.6-7.67S116.69,260.54,102.63,255.91z"/>
		<path class="st9" d="M100.58,203.11c0,0-8.31-0.42-12.46,2.29c-4.15,2.7-4.57,12.05-5.19,13.29c-0.62,1.25-4.57,17.45-4.99,19.73
			c-0.42,2.29,3.74,6.86,5.4,5.82c1.66-1.04,8.52-18.7,8.52-18.7s9.97,18.28,10.8,20.15c0.83,1.87-0.42,11.84-0.42,11.84
			s2.29,4.36,13.29,3.95c11.01-0.42,21.6-6.23,21.6-6.23s-1.87-11.43-2.29-13.71s-1.66-22.64-3.95-30.54
			c-2.29-7.89-6.86-10.8-10.39-10.8c-3.53,0-10.18,0.21-12.46,0.62C105.77,201.24,100.58,203.11,100.58,203.11z"/>
		<g>
			<path class="st9" d="M96.01,204.36c0,0,7.89,11.43,9.97,12.26c2.08,0.83,5.19-12.26,5.19-12.26l-1.66-9.76
				c0,0-8.93,1.45-12.67,3.12C93.1,199.37,96.01,204.36,96.01,204.36z"/>
			<path class="st9" d="M92.89,203.11c0,0,5.4,6.86,8.52,7.27c3.12,0.42,5.19,0,6.65-3.53c0.83-2.01,1.04-9.76,1.04-9.76
				l-17.45,4.36L92.89,203.11z"/>
			<g>
				<path class="st10" d="M92.47,176.11c0,0-3.74,2.49-5.4,6.44c-1.66,3.95,2.29,12.88,2.29,12.88s-1.25,7.27,0.83,7.89
					s9.14,0.83,13.5-1.04c4.36-1.87,6.86-5.19,7.06-6.02c0.21-0.83-0.42-7.06-0.42-7.06s-0.62-6.86-3.95-12.05
					C105.12,175.15,95.8,173.41,92.47,176.11z"/>
				<path class="st9" d="M95.59,179.22c0,0-1.66,0.42-4.36,3.74c-2.7,3.32-2.7,8.52-2.7,8.52l-0.51,0.36
					c0.67,2.06,1.34,3.59,1.34,3.59s-1.25,7.27,0.83,7.89s9.14,0.83,13.5-1.04c4.36-1.87,6.86-5.19,7.06-6.02
					c0.21-0.83-0.42-7.06-0.42-7.06C104.73,179.64,95.59,179.22,95.59,179.22z"/>
				<path class="st10" d="M110.75,196.26c0.21-0.83-0.42-7.06-0.42-7.06s-0.01-0.06-0.02-0.15c-9.95,9.31-20.97,6.38-20.97,6.38
					s-1.25,7.27,0.83,7.89s9.14,0.83,13.5-1.04C108.05,200.41,110.55,197.09,110.75,196.26z"/>
			</g>
		</g>
		<path class="st9" d="M81.18,224.89c-1.34,5.25-2.98,12.11-3.24,13.54c-0.42,2.29,3.74,6.86,5.4,5.82
			c1.05-0.66,4.2-8.01,6.36-13.29L81.18,224.89z"/>
		<path class="st9" d="M78.14,236.14c0,0-1.66,8.31-1.45,11.84c0.21,3.53,12.05,21.4,12.05,21.4l1.04-4.36
			c0,0-3.74-16.83-4.15-19.94c-0.42-3.12-0.42-6.02-0.42-6.02"/>
		<g>
			<path class="st9" d="M87.03,276.13c0,0-0.25,1.41,0.33,2.4c0.58,0.99,3.97,1.99,4.06,1.41c0.08-0.58,0.08-2.48,0.08-2.48
				L87.03,276.13z"/>
			<path class="st9" d="M86.78,274.55c0,0-0.25,1.41,0.33,2.4c0.58,0.99,3.97,1.99,4.06,1.41c0.08-0.58,0.08-2.48,0.08-2.48
				L86.78,274.55z"/>
			<path class="st9" d="M86.45,272.4c0,0-0.25,1.41,0.33,2.4c0.58,0.99,3.97,1.99,4.06,1.41s0.08-2.48,0.08-2.48L86.45,272.4z"/>
			<path class="st9" d="M89.36,263.98c0,0-3.12,6.86-3.12,7.89s4.36,3.12,4.36,3.12l0.21-13.29L89.36,263.98z"/>
		</g>
		<g>
			<rect x="89.33" y="260.85" class="st11" width="43.36" height="38.92"/>
			<g>
				
					<ellipse transform="matrix(0.973 -0.231 0.231 0.973 -62.4225 33.2078)" class="st3" cx="110.61" cy="283.19" rx="12.51" ry="12.51"/>
				<g>
					<path class="st9" d="M102.54,276.88c0,0,3.93,2.09,9.2,2.7c5.28,0.61,7.61-0.12,7.61-0.12s-1.11,5.18-0.96,8.99
						c0.1,2.42-7.88,2.91-12.05,1.31c-3.42-1.31-5.28-2.82-5.28-2.82S101.31,279.82,102.54,276.88z"/>
					<path class="st12" d="M102.17,279.58c0,0,6.13,4.66,16.44,2.82"/>
					<path class="st12" d="M101.56,282.28c0,0,4.96,5.43,16.53,2.9"/>
					<path class="st12" d="M101.19,285.22c0,0,9.82,6.01,17.05,2.58"/>
					<path class="st12" d="M119.35,279.46c0,0,3.93-4.29,5.03-1.59c1.1,2.7-0.49,9.2-5.77,11.04"/>
					<path class="st12" d="M102.54,276.88c0,0,0.12-3.56-1.96-4.17c-2.09-0.61-1.47,8.96,0.49,13.62"/>
				</g>
			</g>
			<rect x="107.77" y="260.85" class="st9" width="6.49" height="6.83"/>
		</g>
		<g>
			<path class="st9" d="M118.55,266.35l16.92-23.97c0,0,2.08-1.66,1.29-4.09c-0.42-1.29-8.02-31.7-8.02-31.7s-4.24-7.2-8.72-2.8
				c-3.64,3.58-1,11.74,0.12,14.68c0.39,1.03,0.74,2.07,1.06,3.12l4.05,17.37l-11.51,25.93c0,0-4.83,2.54-5.59,3.03
				c-0.76,0.49-2.29,2.64-3.19,3.76c-0.9,1.11-2.47,1.36-1.42,1.98c1.04,0.62,1.74-0.14,2.22-0.56s2.43-2.09,2.43-2.09l-2.29,7.41
				c-0.13,0.43,0.09,0.89,0.5,1.06l0,0c0.42,0.17,0.91-0.02,1.1-0.43l2.32-4.9l-0.51,5.63c-0.04,0.44,0.28,0.82,0.71,0.87l0,0
				c0.37,0.04,0.73-0.18,0.85-0.54l1.76-5.21l-0.08,4.62l0.22,1.18c1.27,0.41,1.31-1.1,1.39-1.89l0.37-3.59l1.22,4l0,0
				c0.47-0.78,0.68-1.69,0.61-2.6l-0.3-3.75l1.33-5.15L118.55,266.35z"/>
			<path class="st9" d="M121.52,222.61l-0.31-1.02c-0.32-1.05-0.67-2.09-1.06-3.12c-1.12-2.94-3.76-11.1-0.12-14.68
				c4.48-4.4,8.72,2.8,8.72,2.8s1.56,6.3,3.2,12.88L121.52,222.61z"/>
		</g>
	</g>
</g>
<g id="Boxes">
	<g>
		<rect x="79.77" y="299.85" class="st11" width="61.62" height="55.31"/>
		<g>
			<circle class="st3" cx="109.67" cy="329.94" r="16.8"/>
			<g>
				<path class="st9" d="M98.83,321.46c0,0,5.27,2.8,12.36,3.63c7.09,0.82,10.22-0.16,10.22-0.16s-1.5,6.96-1.29,12.08
					c0.13,3.25-10.58,3.91-16.18,1.76c-4.59-1.76-7.09-3.79-7.09-3.79S97.18,325.42,98.83,321.46z"/>
				<path class="st12" d="M98.34,325.09c0,0,8.24,6.26,22.08,3.79"/>
				<path class="st12" d="M97.51,328.71c0,0,6.66,7.3,22.2,3.9"/>
				<path class="st12" d="M97.02,332.67c0,0,13.18,8.08,22.91,3.46"/>
				<path class="st12" d="M121.41,324.92c0,0,5.27-5.77,6.76-2.14c1.48,3.63-0.66,12.36-7.75,14.83"/>
				<path class="st12" d="M98.83,321.46c0,0,0.16-4.78-2.64-5.6c-2.8-0.82-1.98,12.03,0.66,18.29"/>
			</g>
		</g>
		<rect x="108.8" y="299.85" class="st9" width="5.46" height="9.16"/>
	</g>
	<g>
		<rect x="40.86" y="276.91" class="st11" width="43.36" height="38.92"/>
		<g>
			
				<ellipse transform="matrix(0.9712 -0.2382 0.2382 0.9712 -69.4872 23.5124)" class="st3" cx="62.54" cy="299.27" rx="12.51" ry="12.51"/>
			<g>
				<path class="st9" d="M54.48,292.96c0,0,3.93,2.09,9.2,2.7c5.28,0.61,7.61-0.12,7.61-0.12s-1.11,5.18-0.96,8.99
					c0.1,2.42-7.88,2.91-12.05,1.31c-3.42-1.31-5.28-2.82-5.28-2.82S53.25,295.91,54.48,292.96z"/>
				<path class="st12" d="M54.11,295.66c0,0,6.13,4.66,16.44,2.82"/>
				<path class="st12" d="M53.49,298.36c0,0,4.96,5.43,16.53,2.9"/>
				<path class="st12" d="M53.13,301.31c0,0,9.82,6.01,17.05,2.58"/>
				<path class="st12" d="M71.28,295.54c0,0,3.93-4.29,5.03-1.6c1.1,2.7-0.49,9.2-5.77,11.04"/>
				<path class="st12" d="M54.48,292.96c0,0,0.12-3.56-1.96-4.17c-2.09-0.61-1.47,8.96,0.49,13.62"/>
			</g>
		</g>
		<rect x="59.3" y="276.91" class="st9" width="6.49" height="6.83"/>
	</g>
	<g>
		<rect x="40.86" y="316.24" class="st11" width="43.36" height="38.92"/>
		<g>
			
				<ellipse transform="matrix(0.7361 -0.6769 0.6769 0.7361 -212.6881 131.6917)" class="st3" cx="62.54" cy="338.61" rx="12.51" ry="12.51"/>
			<g>
				<path class="st9" d="M54.48,332.3c0,0,3.93,2.09,9.2,2.7c5.28,0.61,7.61-0.12,7.61-0.12s-1.11,5.18-0.96,8.99
					c0.1,2.42-7.88,2.91-12.05,1.31c-3.42-1.31-5.28-2.82-5.28-2.82S53.25,335.24,54.48,332.3z"/>
				<path class="st12" d="M54.11,335c0,0,6.13,4.66,16.44,2.82"/>
				<path class="st12" d="M53.49,337.69c0,0,4.96,5.43,16.53,2.9"/>
				<path class="st12" d="M53.13,340.64c0,0,9.82,6.01,17.05,2.58"/>
				<path class="st12" d="M71.28,334.87c0,0,3.93-4.29,5.03-1.6c1.1,2.7-0.49,9.2-5.77,11.04"/>
				<path class="st12" d="M54.48,332.3c0,0,0.12-3.56-1.96-4.17c-2.09-0.61-1.47,8.96,0.49,13.62"/>
			</g>
		</g>
		<rect x="59.3" y="316.24" class="st9" width="6.49" height="6.83"/>
	</g>
</g>
<g id="Floor">
	<line class="st12" x1="21.57" y1="355.52" x2="385.24" y2="355.52"/>
</g>
</svg>
