<?xml version="1.0" encoding="utf-8"?>
<!-- Generator: Adobe Illustrator 24.0.1, SVG Export Plug-In . SVG Version: 6.00 Build 0)  -->
<svg version="1.1" id="Camada_1" xmlns="http://www.w3.org/2000/svg" xmlns:xlink="http://www.w3.org/1999/xlink" x="0px" y="0px"
	 viewBox="0 0 123.2 118.7" style="enable-background:new 0 0 123.2 118.7;" xml:space="preserve">
<title>Asset 37</title>
<g>
	<g>
		<path d="M97,4.3C94,1.5,90.1,0,86.1,0c-4.6,0-9,1.8-12.3,5.1l-1.4,1.4l-1.4-1.5C67.6,1.8,63.2,0,58.6,0c-4.1,0-8,1.5-10.9,4.3
			c-6.6,6.2-6.9,16.5-0.7,23.1c0.1,0.1,0.2,0.2,0.4,0.4l25,25l25-25c6.4-6.4,6.4-16.7,0.1-23.1C97.2,4.5,97.1,4.4,97,4.3z"/>
		<path d="M121.6,65.5c-3.8-2.6-8.4-1.9-12.4,0.4c-4,2.3-27.1,22.1-27.1,22.1H59.4c-1.2-0.1-2.1-1.1-2.2-2.2c0-1.2,1-2.2,2.2-2.2
			h13.9c4.9,0,10.3-3.2,10.3-8.8c0-6-5.4-8.8-10.3-8.8c-8.4,0-10.1,0-10.1,0c-3.4,0-6.8-0.2-9.4-1.6c-3.7-1.9-7.8-2.8-11.9-2.8
			c-6.8-0.1-13.4,2.6-18.2,7.4L0,92.3l26.4,26.4l8.8-8.8h44.5c4.4,0,8.7-1.6,12-4.6l30.2-33.8c1.6-1.4,1.8-3.8,0.4-5.4
			C122,65.9,121.8,65.7,121.6,65.5z"/>
	</g>
</g>
</svg>
